# xmcd
#
# Track frame offsets:
#	150
#	21409
#	52970
#	83255
#	100000
#	118213
#	133915
#	161262
#	178743
#	199917
#	221078
#	248502
#	268863
#	281998
#
# Disc length: 3975 seconds
#
# Revision: 1
# Processed by: cddbd v1.5.2PL0 Copyright (c) Steve Scherf et al.
# Submitted via: audiograbber 1.83.01
#
DISCID=ca0f850e
DTITLE=LEB I SOL - LIVE IN MACEDONIA-CD 1
DYEAR=2006
DGENRE=
TTITLE0=RASPUKALA SAR PLANINA
TTITLE1=ABER DOJDE DONKE
TTITLE2=DEVETKA
TTITLE3=NISAM TVOJ
TTITLE4=AKUPUNKTURA
TTITLE5=KAKO TI DRAGO
TTITLE6=MARIJA
TTITLE7=TALASNA DUZINA
TTITLE8=DIKIJEVA IGRA
TTITLE9=RUCNI RAD
TTITLE10=KUMOVA SLAMA
TTITLE11=AJDE SONCE ZAJDE
TTITLE12=SKAKAVAC
TTITLE13=KALABALAK
EXTD=
EXTT0=
EXTT1=
EXTT2=
EXTT3=
EXTT4=
EXTT5=
EXTT6=
EXTT7=
EXTT8=
EXTT9=
EXTT10=
EXTT11=
EXTT12=
EXTT13=
PLAYORDER=
